# MagicaVoxel @ Ephtracy

# group
o 

# material
mtllib capacitor.mtl
usemtl palette

# normals
vn -1 0 0
vn 1 0 0
vn 0 0 1
vn 0 0 -1
vn 0 -1 0
vn 0 1 0

# texcoords
vt 0.919922 0.5
vt 0.974609 0.5
vt 0.978516 0.5

# verts
v -1 2.4 2
v -1 2.4 -2
v -1 2.6 2
v -1 2.6 -2
v -0.9 2.2 2
v -0.9 2.2 -2
v -0.9 2.4 2
v -0.9 2.4 -2
v -0.9 2.6 2
v -0.9 2.6 -2
v -0.9 2.8 2
v -0.9 2.8 -2
v -0.8 2 2
v -0.8 2 -2
v -0.8 2.2 2
v -0.8 2.2 -2
v -0.8 2.8 2
v -0.8 2.8 -2
v -0.8 3 2
v -0.8 3 -2
v -0.7 1.9 2
v -0.7 1.9 -2
v -0.7 2 2
v -0.7 2 -2
v -0.7 3 2
v -0.7 3 -2
v -0.7 3.1 2
v -0.7 3.1 -2
v -0.6 1.8 2
v -0.6 1.8 -2
v -0.6 1.9 2
v -0.6 1.9 -2
v -0.6 3.1 2
v -0.6 3.1 -2
v -0.6 3.2 2
v -0.6 3.2 -2
v -0.4 1.7 2
v -0.4 1.7 -2
v -0.4 1.8 2
v -0.4 1.8 -2
v -0.4 3.2 2
v -0.4 3.2 -2
v -0.4 3.3 2
v -0.4 3.3 -2
v -0.2 1.6 2
v -0.2 1.6 -2
v -0.2 1.7 2
v -0.2 1.7 -2
v -0.2 3.3 2
v -0.2 3.3 -2
v -0.2 3.4 2
v -0.2 3.4 -2
v 1.19209e-07 1.6 2
v 1.19209e-07 1.6 -2
v 1.19209e-07 1.7 2
v 1.19209e-07 1.7 -2
v 1.19209e-07 3.3 2
v 1.19209e-07 3.3 -2
v 1.19209e-07 3.4 2
v 1.19209e-07 3.4 -2
v 0.2 1.7 2
v 0.2 1.7 -2
v 0.2 1.8 2
v 0.2 1.8 -2
v 0.2 3.2 2
v 0.2 3.2 -2
v 0.2 3.3 2
v 0.2 3.3 -2
v 0.4 1.8 2
v 0.4 1.8 -2
v 0.4 1.9 2
v 0.4 1.9 -2
v 0.4 3.1 2
v 0.4 3.1 -2
v 0.4 3.2 2
v 0.4 3.2 -2
v 0.5 1.9 2
v 0.5 1.9 -2
v 0.5 2 2
v 0.5 2 -2
v 0.5 3 2
v 0.5 3 -2
v 0.5 3.1 2
v 0.5 3.1 -2
v 0.6 2 2
v 0.6 2 -2
v 0.6 2.2 2
v 0.6 2.2 -2
v 0.6 2.8 2
v 0.6 2.8 -2
v 0.6 3 2
v 0.6 3 -2
v 0.7 2.2 2
v 0.7 2.2 -2
v 0.7 2.4 2
v 0.7 2.4 -2
v 0.7 2.6 2
v 0.7 2.6 -2
v 0.7 2.8 2
v 0.7 2.8 -2
v 0.8 2.4 2
v 0.8 2.4 -2
v 0.8 2.6 2
v 0.8 2.6 -2
v -1 2.4 2
v -1 2.6 2
v -0.9 2.2 2
v -0.9 2.4 2
v -0.9 2.6 2
v -0.9 2.8 2
v -0.8 2 2
v -0.8 2.2 2
v -0.8 2.4 2
v -0.8 2.5 2
v -0.8 2.6 2
v -0.8 2.8 2
v -0.8 3 2
v -0.7 1.9 2
v -0.7 2 2
v -0.7 2.2 2
v -0.7 2.4 2
v -0.7 2.6 2
v -0.7 2.8 2
v -0.7 3 2
v -0.7 3.1 2
v -0.6 1.8 2
v -0.6 1.9 2
v -0.6 2 2
v -0.6 2.2 2
v -0.6 2.8 2
v -0.6 3 2
v -0.6 3.1 2
v -0.6 3.2 2
v -0.4 1.7 2
v -0.4 1.8 2
v -0.4 1.9 2
v -0.4 2 2
v -0.4 3 2
v -0.4 3.1 2
v -0.4 3.2 2
v -0.4 3.3 2
v -0.2 1.6 2
v -0.2 1.7 2
v -0.2 1.8 2
v -0.2 1.9 2
v -0.2 3.1 2
v -0.2 3.2 2
v -0.2 3.3 2
v -0.2 3.4 2
v -0.0999999 1.8 2
v -0.0999999 2.5 2
v -0.0999999 2.6 2
v -0.0999999 3.2 2
v 1.19209e-07 1.6 2
v 1.19209e-07 1.7 2
v 1.19209e-07 1.8 2
v 1.19209e-07 1.9 2
v 1.19209e-07 2.5 2
v 1.19209e-07 2.6 2
v 1.19209e-07 3.1 2
v 1.19209e-07 3.2 2
v 1.19209e-07 3.3 2
v 1.19209e-07 3.4 2
v 0.2 1.7 2
v 0.2 1.8 2
v 0.2 1.9 2
v 0.2 2 2
v 0.2 3 2
v 0.2 3.1 2
v 0.2 3.2 2
v 0.2 3.3 2
v 0.4 1.8 2
v 0.4 1.9 2
v 0.4 2 2
v 0.4 2.2 2
v 0.4 2.8 2
v 0.4 3 2
v 0.4 3.1 2
v 0.4 3.2 2
v 0.5 1.9 2
v 0.5 2 2
v 0.5 2.2 2
v 0.5 2.4 2
v 0.5 2.6 2
v 0.5 2.8 2
v 0.5 3 2
v 0.5 3.1 2
v 0.6 2 2
v 0.6 2.2 2
v 0.6 2.4 2
v 0.6 2.5 2
v 0.6 2.6 2
v 0.6 2.8 2
v 0.6 3 2
v 0.7 2.2 2
v 0.7 2.4 2
v 0.7 2.6 2
v 0.7 2.8 2
v 0.8 2.4 2
v 0.8 2.6 2
v -1 2.4 -2
v -1 2.6 -2
v -0.9 2.2 -2
v -0.9 2.4 -2
v -0.9 2.6 -2
v -0.9 2.8 -2
v -0.8 2 -2
v -0.8 2.2 -2
v -0.8 2.8 -2
v -0.8 3 -2
v -0.7 1.9 -2
v -0.7 2 -2
v -0.7 2.8 -2
v -0.7 3 -2
v -0.7 3.1 -2
v -0.6 1.8 -2
v -0.6 1.9 -2
v -0.6 3 -2
v -0.6 3.1 -2
v -0.6 3.2 -2
v -0.4 1.7 -2
v -0.4 1.8 -2
v -0.4 3.1 -2
v -0.4 3.2 -2
v -0.4 3.3 -2
v -0.2 1.6 -2
v -0.2 1.7 -2
v -0.2 3.3 -2
v -0.2 3.4 -2
v 1.19209e-07 1.6 -2
v 1.19209e-07 1.7 -2
v 1.19209e-07 3.3 -2
v 1.19209e-07 3.4 -2
v 0.2 1.7 -2
v 0.2 1.8 -2
v 0.2 3.2 -2
v 0.2 3.3 -2
v 0.4 1.8 -2
v 0.4 1.9 -2
v 0.4 3.1 -2
v 0.4 3.2 -2
v 0.5 1.9 -2
v 0.5 2 -2
v 0.5 3 -2
v 0.5 3.1 -2
v 0.6 2 -2
v 0.6 2.2 -2
v 0.6 2.8 -2
v 0.6 3 -2
v 0.7 2.2 -2
v 0.7 2.4 -2
v 0.7 2.6 -2
v 0.7 2.8 -2
v 0.8 2.4 -2
v 0.8 2.6 -2
v -0.2 1.6 2
v 1.19209e-07 1.6 2
v -0.2 1.6 -2
v 1.19209e-07 1.6 -2
v -0.4 1.7 2
v -0.2 1.7 2
v 1.19209e-07 1.7 2
v 0.2 1.7 2
v -0.4 1.7 -2
v -0.2 1.7 -2
v 1.19209e-07 1.7 -2
v 0.2 1.7 -2
v -0.6 1.8 2
v -0.4 1.8 2
v 0.2 1.8 2
v 0.4 1.8 2
v -0.6 1.8 -2
v -0.4 1.8 -2
v 0.2 1.8 -2
v 0.4 1.8 -2
v -0.7 1.9 2
v -0.6 1.9 2
v 0.4 1.9 2
v 0.5 1.9 2
v -0.7 1.9 -2
v -0.6 1.9 -2
v 0.4 1.9 -2
v 0.5 1.9 -2
v -0.8 2 2
v -0.7 2 2
v 0.5 2 2
v 0.6 2 2
v -0.8 2 -2
v -0.7 2 -2
v 0.5 2 -2
v 0.6 2 -2
v -0.9 2.2 2
v -0.8 2.2 2
v 0.6 2.2 2
v 0.7 2.2 2
v -0.9 2.2 -2
v -0.8 2.2 -2
v 0.6 2.2 -2
v 0.7 2.2 -2
v -1 2.4 2
v -0.9 2.4 2
v 0.7 2.4 2
v 0.8 2.4 2
v -1 2.4 -2
v -0.9 2.4 -2
v 0.7 2.4 -2
v 0.8 2.4 -2
v -1 2.6 2
v -0.9 2.6 2
v 0.7 2.6 2
v 0.8 2.6 2
v -1 2.6 -2
v -0.9 2.6 -2
v 0.7 2.6 -2
v 0.8 2.6 -2
v -0.9 2.8 2
v -0.8 2.8 2
v 0.6 2.8 2
v 0.7 2.8 2
v -0.9 2.8 -2
v -0.8 2.8 -2
v 0.6 2.8 -2
v 0.7 2.8 -2
v -0.8 3 2
v -0.7 3 2
v 0.5 3 2
v 0.6 3 2
v -0.8 3 -2
v -0.7 3 -2
v 0.5 3 -2
v 0.6 3 -2
v -0.7 3.1 2
v -0.6 3.1 2
v 0.4 3.1 2
v 0.5 3.1 2
v -0.7 3.1 -2
v -0.6 3.1 -2
v 0.4 3.1 -2
v 0.5 3.1 -2
v -0.6 3.2 2
v -0.4 3.2 2
v 0.2 3.2 2
v 0.4 3.2 2
v -0.6 3.2 -2
v -0.4 3.2 -2
v 0.2 3.2 -2
v 0.4 3.2 -2
v -0.4 3.3 2
v -0.2 3.3 2
v 1.19209e-07 3.3 2
v 0.2 3.3 2
v -0.4 3.3 -2
v -0.2 3.3 -2
v 1.19209e-07 3.3 -2
v 0.2 3.3 -2
v -0.2 3.4 2
v 1.19209e-07 3.4 2
v -0.2 3.4 -2
v 1.19209e-07 3.4 -2

# faces
f 3/1/1 2/1/1 1/1/1
f 4/1/1 2/1/1 3/1/1
f 7/1/1 6/1/1 5/1/1
f 8/1/1 6/1/1 7/1/1
f 11/1/1 10/1/1 9/1/1
f 12/1/1 10/1/1 11/1/1
f 15/1/1 14/1/1 13/1/1
f 16/1/1 14/1/1 15/1/1
f 19/3/1 18/3/1 17/3/1
f 20/3/1 18/3/1 19/3/1
f 23/1/1 22/1/1 21/1/1
f 24/1/1 22/1/1 23/1/1
f 27/3/1 26/3/1 25/3/1
f 28/3/1 26/3/1 27/3/1
f 31/1/1 30/1/1 29/1/1
f 32/1/1 30/1/1 31/1/1
f 35/3/1 34/3/1 33/3/1
f 36/3/1 34/3/1 35/3/1
f 39/1/1 38/1/1 37/1/1
f 40/1/1 38/1/1 39/1/1
f 43/1/1 42/1/1 41/1/1
f 44/1/1 42/1/1 43/1/1
f 47/1/1 46/1/1 45/1/1
f 48/1/1 46/1/1 47/1/1
f 51/1/1 50/1/1 49/1/1
f 52/1/1 50/1/1 51/1/1
f 53/1/2 54/1/2 55/1/2
f 55/1/2 54/1/2 56/1/2
f 57/1/2 58/1/2 59/1/2
f 59/1/2 58/1/2 60/1/2
f 61/1/2 62/1/2 63/1/2
f 63/1/2 62/1/2 64/1/2
f 65/1/2 66/1/2 67/1/2
f 67/1/2 66/1/2 68/1/2
f 69/1/2 70/1/2 71/1/2
f 71/1/2 70/1/2 72/1/2
f 73/1/2 74/1/2 75/1/2
f 75/1/2 74/1/2 76/1/2
f 77/1/2 78/1/2 79/1/2
f 79/1/2 78/1/2 80/1/2
f 81/1/2 82/1/2 83/1/2
f 83/1/2 82/1/2 84/1/2
f 85/1/2 86/1/2 87/1/2
f 87/1/2 86/1/2 88/1/2
f 89/1/2 90/1/2 91/1/2
f 91/1/2 90/1/2 92/1/2
f 93/1/2 94/1/2 95/1/2
f 95/1/2 94/1/2 96/1/2
f 97/1/2 98/1/2 99/1/2
f 99/1/2 98/1/2 100/1/2
f 101/1/2 102/1/2 103/1/2
f 103/1/2 102/1/2 104/1/2
f 108/1/3 106/1/3 105/1/3
f 109/1/3 106/1/3 108/1/3
f 112/1/3 108/1/3 107/1/3
f 112/1/3 110/1/3 109/1/3
f 112/1/3 109/1/3 108/1/3
f 113/1/3 110/1/3 112/1/3
f 114/1/3 110/1/3 113/1/3
f 115/1/3 110/1/3 114/1/3
f 116/1/3 110/1/3 115/1/3
f 119/1/3 112/1/3 111/1/3
f 119/1/3 113/1/3 112/1/3
f 120/1/3 113/1/3 119/1/3
f 121/2/3 114/2/3 113/2/3
f 121/1/3 113/1/3 120/1/3
f 122/1/3 116/1/3 115/1/3
f 122/3/3 115/3/3 114/3/3
f 123/3/3 117/3/3 116/3/3
f 123/1/3 116/1/3 122/1/3
f 124/3/3 117/3/3 123/3/3
f 127/1/3 120/1/3 119/1/3
f 127/1/3 119/1/3 118/1/3
f 128/1/3 120/1/3 127/1/3
f 129/2/3 121/2/3 120/2/3
f 129/1/3 120/1/3 128/1/3
f 130/3/3 125/3/3 124/3/3
f 130/3/3 124/3/3 123/3/3
f 130/2/3 123/2/3 122/2/3
f 131/3/3 125/3/3 130/3/3
f 132/3/3 125/3/3 131/3/3
f 135/1/3 128/1/3 127/1/3
f 135/1/3 127/1/3 126/1/3
f 136/1/3 128/1/3 135/1/3
f 137/2/3 129/2/3 128/2/3
f 137/1/3 128/1/3 136/1/3
f 138/3/3 133/3/3 132/3/3
f 138/3/3 132/3/3 131/3/3
f 138/2/3 131/2/3 130/2/3
f 139/3/3 133/3/3 138/3/3
f 140/3/3 133/3/3 139/3/3
f 143/1/3 136/1/3 135/1/3
f 143/1/3 135/1/3 134/1/3
f 144/1/3 136/1/3 143/1/3
f 145/2/3 137/2/3 136/2/3
f 145/1/3 136/1/3 144/1/3
f 146/1/3 141/1/3 140/1/3
f 146/1/3 140/1/3 139/1/3
f 146/2/3 139/2/3 138/2/3
f 147/1/3 141/1/3 146/1/3
f 148/1/3 141/1/3 147/1/3
f 150/1/3 144/1/3 143/1/3
f 150/2/3 145/2/3 144/2/3
f 150/1/3 143/1/3 142/1/3
f 151/3/3 122/3/3 114/3/3
f 151/2/3 145/2/3 150/2/3
f 151/2/3 114/2/3 121/2/3
f 151/2/3 121/2/3 129/2/3
f 151/2/3 129/2/3 137/2/3
f 151/2/3 137/2/3 145/2/3
f 152/2/3 146/2/3 138/2/3
f 152/3/3 122/3/3 151/3/3
f 152/2/3 147/2/3 146/2/3
f 152/2/3 138/2/3 130/2/3
f 152/2/3 130/2/3 122/2/3
f 153/1/3 148/1/3 147/1/3
f 153/2/3 147/2/3 152/2/3
f 153/1/3 149/1/3 148/1/3
f 154/1/3 150/1/3 142/1/3
f 155/1/3 150/1/3 154/1/3
f 156/3/3 151/3/3 150/3/3
f 156/1/3 150/1/3 155/1/3
f 156/3/3 152/3/3 151/3/3
f 156/3/3 153/3/3 152/3/3
f 157/3/3 153/3/3 156/3/3
f 158/3/3 153/3/3 157/3/3
f 159/3/3 153/3/3 158/3/3
f 160/3/3 153/3/3 159/3/3
f 161/1/3 149/1/3 153/1/3
f 161/3/3 153/3/3 160/3/3
f 162/1/3 149/1/3 161/1/3
f 163/1/3 149/1/3 162/1/3
f 164/1/3 156/1/3 155/1/3
f 164/1/3 157/1/3 156/1/3
f 165/1/3 157/1/3 164/1/3
f 166/2/3 158/2/3 157/2/3
f 166/1/3 157/1/3 165/1/3
f 167/2/3 158/2/3 166/2/3
f 168/2/3 160/2/3 159/2/3
f 169/1/3 162/1/3 161/1/3
f 169/2/3 160/2/3 168/2/3
f 169/1/3 161/1/3 160/1/3
f 170/1/3 162/1/3 169/1/3
f 171/1/3 162/1/3 170/1/3
f 172/1/3 167/1/3 166/1/3
f 172/1/3 166/1/3 165/1/3
f 173/1/3 167/1/3 172/1/3
f 174/2/3 158/2/3 167/2/3
f 174/1/3 167/1/3 173/1/3
f 175/2/3 158/2/3 174/2/3
f 176/2/3 168/2/3 159/2/3
f 177/1/3 170/1/3 169/1/3
f 177/2/3 168/2/3 176/2/3
f 177/1/3 169/1/3 168/1/3
f 178/1/3 170/1/3 177/1/3
f 179/1/3 170/1/3 178/1/3
f 180/1/3 175/1/3 174/1/3
f 180/1/3 174/1/3 173/1/3
f 181/1/3 175/1/3 180/1/3
f 182/2/3 158/2/3 175/2/3
f 182/1/3 175/1/3 181/1/3
f 183/2/3 158/2/3 182/2/3
f 184/2/3 176/2/3 159/2/3
f 184/3/3 159/3/3 158/3/3
f 185/1/3 178/1/3 177/1/3
f 185/2/3 176/2/3 184/2/3
f 185/1/3 177/1/3 176/1/3
f 186/1/3 178/1/3 185/1/3
f 187/1/3 178/1/3 186/1/3
f 188/1/3 183/1/3 182/1/3
f 188/1/3 182/1/3 181/1/3
f 189/1/3 183/1/3 188/1/3
f 190/2/3 158/2/3 183/2/3
f 190/1/3 183/1/3 189/1/3
f 191/3/3 184/3/3 158/3/3
f 191/2/3 158/2/3 190/2/3
f 192/1/3 186/1/3 185/1/3
f 192/3/3 184/3/3 191/3/3
f 192/1/3 185/1/3 184/1/3
f 193/1/3 186/1/3 192/1/3
f 194/1/3 186/1/3 193/1/3
f 195/1/3 191/1/3 190/1/3
f 195/1/3 193/1/3 192/1/3
f 195/1/3 192/1/3 191/1/3
f 195/1/3 190/1/3 189/1/3
f 196/1/3 193/1/3 195/1/3
f 197/1/3 193/1/3 196/1/3
f 198/1/3 193/1/3 197/1/3
f 199/1/3 197/1/3 196/1/3
f 200/1/3 197/1/3 199/1/3
f 201/1/4 202/1/4 204/1/4
f 204/1/4 202/1/4 205/1/4
f 203/1/4 204/1/4 208/1/4
f 205/1/4 206/1/4 208/1/4
f 204/1/4 205/1/4 208/1/4
f 208/1/4 206/1/4 209/1/4
f 207/1/4 208/1/4 212/1/4
f 208/1/4 209/1/4 212/1/4
f 209/3/4 210/3/4 213/3/4
f 212/1/4 209/1/4 213/1/4
f 213/3/4 210/3/4 214/3/4
f 211/1/4 212/1/4 217/1/4
f 212/1/4 213/1/4 217/1/4
f 213/1/4 214/1/4 217/1/4
f 214/3/4 215/3/4 218/3/4
f 217/1/4 214/1/4 218/1/4
f 218/3/4 215/3/4 219/3/4
f 216/1/4 217/1/4 222/1/4
f 217/1/4 218/1/4 222/1/4
f 218/1/4 219/1/4 222/1/4
f 219/3/4 220/3/4 223/3/4
f 222/1/4 219/1/4 223/1/4
f 223/3/4 220/3/4 224/3/4
f 221/1/4 222/1/4 227/1/4
f 224/1/4 225/1/4 227/1/4
f 223/1/4 224/1/4 227/1/4
f 222/1/4 223/1/4 227/1/4
f 227/1/4 225/1/4 228/1/4
f 226/1/4 227/1/4 230/1/4
f 228/1/4 229/1/4 230/1/4
f 227/1/4 228/1/4 230/1/4
f 230/1/4 229/1/4 231/1/4
f 231/1/4 229/1/4 232/1/4
f 232/1/4 229/1/4 233/1/4
f 231/1/4 232/1/4 234/1/4
f 234/1/4 232/1/4 235/1/4
f 235/1/4 232/1/4 236/1/4
f 236/1/4 232/1/4 237/1/4
f 235/1/4 236/1/4 238/1/4
f 238/1/4 236/1/4 239/1/4
f 239/1/4 236/1/4 240/1/4
f 240/1/4 236/1/4 241/1/4
f 239/1/4 240/1/4 242/1/4
f 242/1/4 240/1/4 243/1/4
f 243/1/4 240/1/4 244/1/4
f 244/1/4 240/1/4 245/1/4
f 243/1/4 244/1/4 246/1/4
f 246/1/4 244/1/4 247/1/4
f 247/1/4 244/1/4 248/1/4
f 248/1/4 244/1/4 249/1/4
f 247/1/4 248/1/4 250/1/4
f 250/1/4 248/1/4 251/1/4
f 251/1/4 248/1/4 252/1/4
f 252/1/4 248/1/4 253/1/4
f 251/1/4 252/1/4 254/1/4
f 254/1/4 252/1/4 255/1/4
f 258/1/5 257/1/5 256/1/5
f 259/1/5 257/1/5 258/1/5
f 264/1/5 261/1/5 260/1/5
f 265/1/5 261/1/5 264/1/5
f 266/1/5 263/1/5 262/1/5
f 267/1/5 263/1/5 266/1/5
f 272/1/5 269/1/5 268/1/5
f 273/1/5 269/1/5 272/1/5
f 274/1/5 271/1/5 270/1/5
f 275/1/5 271/1/5 274/1/5
f 280/1/5 277/1/5 276/1/5
f 281/1/5 277/1/5 280/1/5
f 282/1/5 279/1/5 278/1/5
f 283/1/5 279/1/5 282/1/5
f 288/1/5 285/1/5 284/1/5
f 289/1/5 285/1/5 288/1/5
f 290/1/5 287/1/5 286/1/5
f 291/1/5 287/1/5 290/1/5
f 296/1/5 293/1/5 292/1/5
f 297/1/5 293/1/5 296/1/5
f 298/1/5 295/1/5 294/1/5
f 299/1/5 295/1/5 298/1/5
f 304/1/5 301/1/5 300/1/5
f 305/1/5 301/1/5 304/1/5
f 306/1/5 303/1/5 302/1/5
f 307/1/5 303/1/5 306/1/5
f 308/1/6 309/1/6 312/1/6
f 312/1/6 309/1/6 313/1/6
f 310/1/6 311/1/6 314/1/6
f 314/1/6 311/1/6 315/1/6
f 316/1/6 317/1/6 320/1/6
f 320/1/6 317/1/6 321/1/6
f 318/1/6 319/1/6 322/1/6
f 322/1/6 319/1/6 323/1/6
f 324/3/6 325/3/6 328/3/6
f 328/3/6 325/3/6 329/3/6
f 326/1/6 327/1/6 330/1/6
f 330/1/6 327/1/6 331/1/6
f 332/3/6 333/3/6 336/3/6
f 336/3/6 333/3/6 337/3/6
f 334/1/6 335/1/6 338/1/6
f 338/1/6 335/1/6 339/1/6
f 340/3/6 341/3/6 344/3/6
f 344/3/6 341/3/6 345/3/6
f 342/1/6 343/1/6 346/1/6
f 346/1/6 343/1/6 347/1/6
f 348/1/6 349/1/6 352/1/6
f 352/1/6 349/1/6 353/1/6
f 350/1/6 351/1/6 354/1/6
f 354/1/6 351/1/6 355/1/6
f 356/1/6 357/1/6 358/1/6
f 358/1/6 357/1/6 359/1/6
